PathFileType        4      (X/Y/Z)      Walking.trc         
DataRate	CameraRate	NumFrames	NumMarkers	Units	OrigDataRate	OrigDataStartFrame	OrigNumFrames
100.0	100.0	5	18	mm	100.0	78	97
Frame#	Time	T2			T10			MANU			LASI			RASI			SACR			LTHI			LKNE			LTIB			LANK			LHEE			LTOE			RTHI			RKNE			RTIB			RANK			RHEE			RTOE			
		X1	Y1	Z1	X2	Y2	Z2	X3	Y3	Z3	X4	Y4	Z4	X5	Y5	Z5	X6	Y6	Z6	X7	Y7	Z7	X8	Y8	Z8	X9	Y9	Z9	X10	Y10	Z10	X11	Y11	Z11	X12	Y12	Z12	X13	Y13	Z13	X14	Y14	Z14	X15	Y15	Z15	X16	Y16	Z16	X17	Y17	Z17	X18	Y18	Z18	
78	4.01	876.53324716	1173.00820301	60.22599311	841.17473885	982.6436249	57.96576991	986.76781846	1098.05288484	69.72192002	974.71244327	775.61366173	-26.09818587	959.81812397	773.25411587	183.59516596	848.94433235	814.04685702	70.04296945	944.03153945	442.82499721	-55.15993316	932.71546147	374.0932299	-6.31827963	848.58209978	148.1878169	-61.61851916	794.97510826	75.18389122	-32.80896156	730.8526085	66.20045996	-32.90150996	879.72063052	24.87403588	42.7804731	1022.42610095	482.02818721	240.2355758	1034.70743772	405.96412343	197.91387149	933.04844459	209.66366021	265.64585395	861.97291898	125.5231492	240.39133843	805.92529254	142.68503006	232.58658979	913.37137545	43.45027057	149.38389912	
79	4.02	887.32563239	1173.02410804	60.69818118	850.35513739	982.93728652	58.03520887	996.87357995	1097.14916807	70.56134363	982.74405154	775.73567898	-27.16802125	969.51580215	772.79365023	182.7135916	857.59825143	813.33547136	70.13466026	948.68858208	442.45084015	-56.38859713	936.86016108	373.65421785	-7.36162448	849.85896646	148.596283	-62.01756452	795.66372951	76.15312973	-32.8032798	731.46949844	68.04958645	-32.60036924	879.89921967	24.80413911	42.69092668	1040.24014453	485.28030079	239.37456774	1054.7720892	409.81088199	197.05531688	959.59682776	210.6831383	265.38764763	891.01350026	124.49412187	240.63952265	834.3552902	139.34859734	232.40733136	946.35684156	43.69918651	151.28227437	
80	4.03	898.08316184	1172.67713484	61.22706062	859.53133919	982.8681756	58.17587896	1006.95454311	1095.87442089	71.40086564	990.91335477	775.5582443	-28.22274708	979.32289266	772.03151376	181.86033624	866.3663838	812.26002128	70.23489679	953.67281448	441.82564973	-57.5072729	941.30358083	372.97512875	-8.29307635	851.21307477	148.88201458	-62.32737127	796.34627552	77.07386987	-32.73912951	732.06738846	69.88384738	-32.22913267	880.05858159	24.72855509	42.62436462	1057.74359501	488.2383256	238.37096985	1074.36598071	413.43309745	196.03515338	986.25675462	211.43950915	264.9476753	920.42855839	123.13788733	240.72452036	863.22339039	135.5795528	232.10063941	979.69193838	43.83522737	152.98889185	
81	4.04	908.80957886	1171.98000747	61.80853464	868.72830125	982.4452841	58.38638162	1017.02316537	1094.25647377	72.23849241	999.25983282	775.09860878	-29.24309082	989.25726293	771.00167758	181.04973053	875.28397364	810.84139061	70.34564314	959.02315415	440.96346789	-58.50150208	946.06040721	372.06897571	-9.10361245	852.67181309	149.06415237	-62.55976918	797.04862479	77.96396919	-32.63795815	732.67411122	71.72643859	-31.82007355	880.20013002	24.64806956	42.5768871	1074.88370181	490.84625699	237.22425675	1093.43147667	416.76439744	194.8459526	1012.96205767	211.89857512	264.26042702	950.16492135	121.46123668	240.55001203	892.48534018	131.41076091	231.59157134	1013.27049225	43.88107511	154.36025196	
82	4.05	919.50992334	1170.94621555	62.43825426	877.97391128	981.67748096	58.66431347	1027.09427631	1092.32526266	73.07374182	1007.82272773	774.37211023	-30.20944809	999.33827459	769.73468538	180.29772295	884.38721745	809.10063362	70.47043251	964.77798282	439.87889095	-59.36289112	951.15476533	370.95022729	-9.78973099	854.27234046	149.16659324	-62.73053997	797.80677404	78.84802233	-32.52464886	733.32925051	73.60944898	-31.41203855	880.33076885	24.56480102	42.54279084	1091.61713628	493.04528359	235.93565772	1111.92212661	419.73333798	193.48076782	1039.63279253	212.02184758	263.255652	980.14464265	119.47416439	240.00861058	922.0726598	126.88611686	230.78904584	1046.95603309	43.85196551	155.24333291	
